<svg xmlns="http://www.w3.org/2000/svg" width="24" height="24" viewBox="0 0 24 24" role="img" aria-labelledby="title" data-pivot="11.3,11.2" data-muzzle-a="22.1,9.7" data-muzzle-b="22.1,10.9">
  <title id="title">Cat dual-arm twin-barrel green laser MG (overlay layer)</title>

  <!-- Primary arm (pivoted) -->
  <g fill="currentColor" stroke="currentColor" stroke-linejoin="round" stroke-linecap="round" stroke-width=".6">
    <path d="M11.3 11.2c1.2-.55 2.5-.9 3.6-1l.4 1.2c-1 .25-2 .6-3.2 1.2Z"></path>
    <circle cx="15.3" cy="11.0" r=".7"></circle>
  </g>

  <!-- Support arm (under fore-end) -->
  <g fill="currentColor" stroke="currentColor" stroke-linejoin="round" stroke-linecap="round" stroke-width=".6">
    <path d="M9.9 12.8c1.7-.45 3.3-.65 5-.65 1.25 0 2.5.1 3.7.2l-.2 1.1c-1.15-.1-2.3-.2-3.5-.2-1.8 0-3.5.2-4.7.55Z"></path>
    <circle cx="18.0" cy="12.2" r=".7"></circle>
  </g>

  <!-- Twin-barrel laser machine gun -->
  <g stroke-linejoin="round" stroke-linecap="round" stroke-width=".6">
    <!-- Receiver/body -->
    <g fill="#7b8591" stroke="#43464a">
      <rect x="13.8" y="9.0" width="3.4" height="2.6" rx=".4"></rect>
      <!-- rear grip / trigger block -->
      <rect x="14.3" y="10.7" width="1.0" height="1.3" rx=".2"></rect>
      <!-- trigger guard hint -->
      <path d="M14.7 11.0c.42 0 .62.2.62.4 0 .2-.2.3-.62.3" fill="none"></path>
      <!-- top heat fins -->
      <rect x="14.2" y="8.5" width="2.2" height=".25" rx=".1"></rect>
      <rect x="15.0" y="8.2" width="1.4" height=".2" rx=".1"></rect>
      <!-- front grip bracket (over support paw) -->
      <rect x="17.0" y="10.9" width="1.2" height="1.4" rx=".25"></rect>
    </g>

    <!-- Twin laser barrels & accents (green) -->
    <g fill="#2ecc71" stroke="#1b5e20">
      <!-- upper barrel -->
      <rect x="17.0" y="9.3" width="5.0" height="0.8" rx=".4"></rect>
      <!-- lower barrel -->
      <rect x="17.0" y="10.7" width="5.0" height="0.8" rx=".4"></rect>
      <!-- conduit/power line accent -->
      <path d="M16.1 9.2c.6.2 1.2.5 1.2 1.5s-.6 1.3-1.2 1.5" fill="none"></path>
      <!-- emitter rings (muzzles) -->
      <circle cx="22.1" cy="9.7" r=".55" fill="#7bed9f"></circle>
      <circle cx="22.1" cy="10.9" r=".55" fill="#7bed9f"></circle>
    </g>
  </g>

  <!-- Invisible guides -->
  <g opacity="0">
    <circle id="pivot" cx="11.3" cy="11.2" r="0.01"></circle>
    <circle id="muzzleA" cx="22.1" cy="9.7" r="0.01"></circle>
    <circle id="muzzleB" cx="22.1" cy="10.9" r="0.01"></circle>
  </g>
</svg>
