<svg xmlns="http://www.w3.org/2000/svg" width="24" height="24" viewBox="0 0 24 24" role="img" aria-labelledby="title" data-pivot="11.3,11.2" data-muzzle-1="21.4,9.6" data-muzzle-2="22.6,9.6" data-muzzle-3="21.4,10.8" data-muzzle-4="22.6,10.8" data-backblast="13.8,10.2">
  <title id="title">Cat dual-arm quad-barrel rocket launcher (overlay layer)</title>

  <!-- Primary arm (pivoted) -->
  <g fill="currentColor" stroke="currentColor" stroke-width=".6" stroke-linejoin="round" stroke-linecap="round">
    <path d="M11.3 11.2c1.22-.55 2.55-.9 3.7-1l.4 1.2c-1.02.25-2.05.6-3.18 1.22Z"></path>
    <circle cx="15.3" cy="11.0" r=".7"></circle>
  </g>

  <!-- Support arm (under fore-end) -->
  <g fill="currentColor" stroke="currentColor" stroke-width=".6" stroke-linejoin="round" stroke-linecap="round">
    <path d="M9.85 12.8c1.75-.45 3.45-.65 5.15-.65 1.28 0 2.56.1 3.78.2l-.2 1.1c-1.16-.1-2.32-.2-3.5-.2-1.82 0-3.48.2-4.68.55Z"></path>
    <circle cx="18.0" cy="12.2" r=".7"></circle>
  </g>

  <!-- Quad rocket launcher -->
  <g stroke-linejoin="round" stroke-linecap="round" stroke-width=".6">
    <!-- Main box/tube -->
    <g fill="#7b8591" stroke="#43464a">
      <rect x="13.8" y="9.0" width="7.6" height="2.6" rx=".4"></rect>
      <!-- rear grip / trigger block -->
      <rect x="14.4" y="10.75" width="1.05" height="1.3" rx=".22"></rect>
      <!-- trigger guard hint -->
      <path d="M14.8 11.05c.42 0 .62.2.62.4 0 .2-.2.3-.62.3" fill="none"></path>
      <!-- front cradle above support paw -->
      <rect x="17.2" y="10.9" width="1.2" height="1.4" rx=".25"></rect>
    </g>

    <!-- Front plate with 2×2 barrel cluster -->
    <g stroke="#43464a">
      <rect x="20.8" y="9.0" width="2.6" height="2.6" rx=".25" fill="#6f7a88"></rect>
      <!-- barrel holes (visual) -->
      <circle cx="21.4" cy="9.6" r=".5" fill="#9099a6"></circle>
      <circle cx="22.6" cy="9.6" r=".5" fill="#9099a6"></circle>
      <circle cx="21.4" cy="10.8" r=".5" fill="#9099a6"></circle>
      <circle cx="22.6" cy="10.8" r=".5" fill="#9099a6"></circle>
    </g>

    <!-- Rear endcap / backblast ring -->
    <circle cx="13.8" cy="10.2" r="0.6" fill="#9099a6" stroke="#43464a"></circle>

    <!-- Hazard stripes accent -->
    <path d="M15.2 9.15l1.0 1.9m.8-1.9l1.0 1.9m.8-1.9l1.0 1.9" stroke="#f4c542"></path>
  </g>

  <!-- Invisible guides (don’t render) -->
  <g opacity="0">
    <circle id="pivot" cx="11.3" cy="11.2" r="0.01"></circle>
    <circle id="muzzle1" cx="21.4" cy="9.6" r="0.01"></circle>
    <circle id="muzzle2" cx="22.6" cy="9.6" r="0.01"></circle>
    <circle id="muzzle3" cx="21.4" cy="10.8" r="0.01"></circle>
    <circle id="muzzle4" cx="22.6" cy="10.8" r="0.01"></circle>
    <circle id="backblast" cx="13.8" cy="10.2" r="0.01"></circle>
  </g>
</svg>
