<svg xmlns="http://www.w3.org/2000/svg" width="24" height="24" viewBox="0 0 24 24" role="img" aria-labelledby="t2" data-pivot="11.3,11.2" data-muzzle="23.2,10.1" data-charge="15.4,9.1">
  <title id="t2">Cat dual-arm sleek railgun (overlay)</title>

  <!-- Primary arm -->
  <g fill="currentColor" stroke="currentColor" stroke-width=".6" stroke-linejoin="round" stroke-linecap="round">
    <path d="M11.3 11.2c1.2-.55 2.5-.9 3.6-1l.4 1.2c-1 .25-2 .6-3.2 1.2Z"></path>
    <circle cx="15.3" cy="11.0" r=".7"></circle>
  </g>
  <!-- Support arm -->
  <g fill="currentColor" stroke="currentColor" stroke-width=".6" stroke-linejoin="round" stroke-linecap="round">
    <path d="M9.9 12.8c1.7-.45 3.3-.65 5-.65 1.25 0 2.5.1 3.7.2l-.2 1.1c-1.15-.1-2.3-.2-3.5-.2-1.8 0-3.5.2-4.7.55Z"></path>
    <circle cx="18.0" cy="12.2" r=".7"></circle>
  </g>

  <!-- Sleek enclosed railgun -->
  <g stroke-linejoin="round" stroke-linecap="round" stroke-width=".6">
    <!-- Smooth shroud -->
    <g fill="#7b8591" stroke="#43464a">
      <rect x="13.7" y="9.25" width="6.0" height="2.0" rx=".7"></rect>
      <rect x="16.0" y="9.2" width="7.2" height="1.8" rx=".8"></rect> <!-- forward shroud -->
      <!-- rear grip / trigger block -->
      <rect x="14.4" y="10.75" width="1.0" height="1.3" rx=".22"></rect>
      <path d="M14.8 11.05c.42 0 .62.2.62.4 0 .2-.2.3-.62.3" fill="none"></path>
      <!-- front cradle over offhand -->
      <rect x="17.6" y="10.9" width="1.2" height="1.4" rx=".28"></rect>
    </g>

    <!-- Energy slit -->
    <rect x="16.4" y="9.95" width="6.6" height="0.5" rx=".25" fill="#00e0ff" stroke="#0b3d4b"></rect>

    <!-- Charge node -->
    <rect x="14.7" y="8.7" width="1.8" height="0.8" rx=".2" fill="#00e0ff" stroke="#0b3d4b"></rect>

    <!-- Muzzle ring -->
    <circle cx="23.2" cy="10.1" r="0.55" fill="#a8c6da" stroke="#43464a"></circle>
  </g>

  <!-- Invisible guides -->
  <g opacity="0">
    <circle cx="11.3" cy="11.2" r="0.01"></circle>
    <circle cx="23.2" cy="10.1" r="0.01"></circle>
    <circle cx="15.4" cy="9.1" r="0.01"></circle>
  </g>
</svg>
