<svg xmlns="http://www.w3.org/2000/svg" width="24" height="24" viewBox="0 0 24 24" role="img" aria-labelledby="title" data-pivot="11.3,11.2" data-muzzle="22.2,10.1" data-eject="15.6,10.1">
  <title id="title">Cat dual-arm shotgun (overlay layer)</title>

  <!-- Primary arm (pivoted) -->
  <g fill="currentColor" stroke="currentColor" stroke-linejoin="round" stroke-linecap="round" stroke-width=".6">
    <path d="M11.3 11.2c1.2-.55 2.5-.9 3.5-1l.4 1.2c-1 .25-2 .6-3.1 1.2Z"></path>
    <circle cx="15.2" cy="11.0" r=".7"></circle>
  </g>

  <!-- Support arm (front hand under fore-end) -->
  <g fill="currentColor" stroke="currentColor" stroke-linejoin="round" stroke-linecap="round" stroke-width=".6">
    <path d="M9.8 12.8c1.6-.45 3.2-.65 4.8-.65 1.2 0 2.4.1 3.5.2l-.2 1.1c-1.1-.1-2.2-.2-3.3-.2-1.7 0-3.3.2-4.6.55Z"></path>
    <circle cx="17.8" cy="12.2" r=".7"></circle>
  </g>

  <!-- Shotgun -->
  <g fill="#7b8591" stroke="#43464a" stroke-width=".6" stroke-linejoin="round" stroke-linecap="round">
    <!-- receiver -->
    <rect x="14.4" y="9.4" width="3.0" height="1.6" rx=".3"></rect>
    <!-- barrel -->
    <rect x="17.0" y="9.5" width="5.2" height="1.2" rx=".5"></rect>
    <!-- muzzle ring -->
    <circle cx="22.2" cy="10.1" r="0.6" fill="#9099a6"></circle>
    <!-- front bead sight -->
    <rect x="21.6" y="9.1" width="0.4" height="0.2" rx=".1"></rect>

    <!-- trigger block -->
    <rect x="14.7" y="10.7" width="1.0" height="1.2" rx=".2"></rect>
    <!-- trigger guard hint -->
    <path d="M15.0 11.0c.45 0 .65.2.65.4 0 .2-.2.3-.65.3" fill="none"></path>

    <!-- ejection port (visual cue) -->
    <rect x="15.2" y="10.0" width="0.9" height="0.2" rx=".1" fill="#666" stroke="#666"></rect>

    <!-- wooden stock -->
    <path d="M14.4 10.2c-.9.05-1.8.4-2.3 1.0-.3.3-.5.8-.5 1.1l1.4.2c.15-.5.7-.9 1.4-1.1Z" fill="#a8723a" stroke="#6b3d1f"></path>

    <!-- pump / fore-end (wood) -->
    <rect x="17.4" y="10.7" width="2.3" height="0.8" rx=".2" fill="#a8723a" stroke="#6b3d1f"></rect>
    <!-- grooves on pump -->
    <path d="M17.6 10.75v.7M18.2 10.75v.7M18.8 10.75v.7" stroke="#6b3d1f"></path>
  </g>

  <!-- Invisible guides -->
  <g opacity="0">
    <circle id="pivot" cx="11.3" cy="11.2" r="0.01"></circle>
    <circle id="muzzle" cx="22.2" cy="10.1" r="0.01"></circle>
    <circle id="eject" cx="15.6" cy="10.1" r="0.01"></circle>
  </g>
</svg>
