<svg xmlns="http://www.w3.org/2000/svg" width="24" height="24" viewBox="0 0 24 24" role="img" aria-labelledby="title" data-pivot="11.3,11.2" data-muzzle="22.8,10.0" data-eject="15.5,10.1">
  <title id="title">Cat dual-arm sniper rifle with scope (overlay layer)</title>

  <!-- Primary arm (pivoted) -->
  <g fill="currentColor" stroke="currentColor" stroke-linejoin="round" stroke-linecap="round" stroke-width=".6">
    <path d="M11.3 11.2c1.2-.55 2.5-.9 3.6-1l.4 1.2c-1 .25-2 .6-3.2 1.2Z"></path>
    <circle cx="15.3" cy="11.0" r=".7"></circle>
  </g>

  <!-- Support arm (front hand under fore-end) -->
  <g fill="currentColor" stroke="currentColor" stroke-linejoin="round" stroke-linecap="round" stroke-width=".6">
    <path d="M9.9 12.8c1.7-.45 3.3-.65 5-.65 1.25 0 2.5.1 3.7.2l-.2 1.1c-1.15-.1-2.3-.2-3.5-.2-1.8 0-3.5.2-4.7.55Z"></path>
    <circle cx="18.0" cy="12.2" r=".7"></circle>
  </g>

  <!-- Sniper rifle -->
  <g fill="#7b8591" stroke="#43464a" stroke-width=".6" stroke-linejoin="round" stroke-linecap="round">
    <!-- stock (dark) -->
    <path d="M14.2 10.4c-1 .05-2 .45-2.5 1.1-.35.4-.55 1-.5 1.3l1.5.2c.15-.55.75-1 1.5-1.2Z" fill="#5b6572" stroke="#343a40"></path>
    <!-- receiver -->
    <rect x="14.4" y="9.4" width="3.1" height="1.6" rx=".25"></rect>
    <!-- ejection port -->
    <rect x="15.1" y="10.0" width="0.9" height="0.2" rx=".1" fill="#666" stroke="#666"></rect>
    <!-- barrel (long) -->
    <rect x="17.2" y="9.6" width="5.6" height="0.9" rx=".45"></rect>
    <!-- muzzle ring -->
    <circle cx="22.8" cy="10.0" r="0.55" fill="#9099a6"></circle>

    <!-- trigger block -->
    <rect x="14.6" y="10.8" width="1.0" height="1.4" rx=".2"></rect>
    <!-- trigger guard hint -->
    <path d="M15.0 11.1c.45 0 .65.2.65.4 0 .2-.2.3-.65.3" fill="none"></path>

    <!-- scope mount rail -->
    <rect x="14.8" y="8.8" width="2.4" height="0.3" rx=".15"></rect>
    <!-- scope tube -->
    <rect x="15.4" y="8.4" width="3.6" height="0.7" rx=".3"></rect>
    <!-- scope rings -->
    <rect x="15.7" y="8.35" width="0.35" height="0.8" rx=".1"></rect>
    <rect x="18.3" y="8.35" width="0.35" height="0.8" rx=".1"></rect>
    <!-- objective lens -->
    <circle cx="19.2" cy="8.75" r="0.5" fill="#9ad0ff" stroke="#2c3e50"></circle>
    <!-- eyepiece lens -->
    <circle cx="15.4" cy="8.75" r="0.35" fill="#9ad0ff" stroke="#2c3e50"></circle>

    <!-- fore-end (slight accent) -->
    <rect x="17.4" y="10.7" width="2.2" height="0.7" rx=".2" fill="#6f7a88" stroke="#43464a"></rect>
  </g>

  <!-- Invisible guides -->
  <g opacity="0">
    <circle id="pivot" cx="11.3" cy="11.2" r="0.01"></circle>
    <circle id="muzzle" cx="22.8" cy="10.0" r="0.01"></circle>
    <circle id="eject" cx="15.5" cy="10.1" r="0.01"></circle>
  </g>
</svg>
