<svg xmlns="http://www.w3.org/2000/svg" width="24" height="24" viewBox="0 0 24 24" role="img" aria-labelledby="title" data-shoulder-pivot="11.3,11.2">
  <title id="title">Soldier Cat (black) – 24px sprite (curled tail, vest adjusted)</title>

  <!-- ===== CAT BODY (uses currentColor) ===== -->
  <g id="soldierCat" fill="currentColor" stroke="currentColor" stroke-width=".6" stroke-linejoin="round" stroke-linecap="round">
    <!-- tail (curled upward) -->
    <path d="M8.9 19.2
             C 7.2 17.6 7.9 15.3 9.9 14.5
               12.0 13.7 13.7 15.3 13.1 17.1
               12.7 18.2 11.6 18.9 10.6 18.6" fill="none" stroke="currentColor" stroke-width="1.2"></path>
    <!-- body -->
    <ellipse cx="10.2" cy="14.8" rx="4.6" ry="5.4"></ellipse>
    <!-- feet -->
    <ellipse cx="8.2" cy="19.6" rx="1.0" ry=".6"></ellipse>
    <ellipse cx="12.2" cy="19.6" rx="1.0" ry=".6"></ellipse>
    <!-- head -->
    <circle cx="9.6" cy="7.9" r="3.8"></circle>
    <!-- ears -->
    <path d="M7.4 5.3 8.5 3.3 9.5 5.2Z"></path>
    <path d="M10.6 5.2 11.6 3.3 12.6 5.3Z"></path>

    <!-- eyes -->
    <g stroke="none">
      <ellipse cx="8.7" cy="7.8" rx=".55" ry=".7" fill="#fff"></ellipse>
      <ellipse cx="10.6" cy="7.8" rx=".55" ry=".7" fill="#fff"></ellipse>
      <circle cx="8.8" cy="7.9" r=".25" fill="currentColor"></circle>
      <circle cx="10.7" cy="7.9" r=".25" fill="currentColor"></circle>
      <circle cx="8.7" cy="7.7" r=".1" fill="#fff"></circle>
      <circle cx="10.6" cy="7.7" r=".1" fill="#fff"></circle>
    </g>

    <!-- muzzle + nose -->
    <ellipse cx="9.6" cy="9.2" rx="1.5" ry="1.1" fill="#fff" stroke="none" opacity=".9"></ellipse>
    <path d="M9.3 8.8h.6l-.3.35Z" fill="currentColor" stroke="none"></path>
    <!-- whiskers -->
    <path d="M7.2 9.3h1.5M10.6 9.3h1.5M7.3 9.7h1.4M10.7 9.7h1.4" fill="none" stroke="currentColor" stroke-width=".4"></path>
  </g>

  <!-- ===== CAMO HELMET (soldier) ===== -->
  <g id="helmet" stroke="none">
    <!-- shell (covers ears; eyes visible) -->
    <path d="M5.2 4.8c2.7-1.8 6.1-1.8 8.8 0 .25.17.25.45 0 .7-.45.8-1.35 1.6-2.25 2.0-2.6-.6-4.2-.6-6.8 0-.9-.4-1.8-1.2-2.25-2.0-.15-.25-.15-.53 0-.7Z" fill="#4b6e2f"></path>
    <!-- rim -->
    <path d="M5.0 6.4c2.9-.55 6.0-.55 8.9 0-.25.45-.7.8-1.2.95-2.2-.35-4.3-.35-6.5 0-.5-.15-.95-.5-1.2-.95Z" fill="#3f5b28"></path>
    <!-- blotches -->
    <circle cx="7.2" cy="5.5" r=".35" fill="#2f4420"></circle>
    <circle cx="9.8" cy="5.1" r=".38" fill="#6c8c40"></circle>
    <circle cx="11.5" cy="6.0" r=".32" fill="#2f4420"></circle>
  </g>

  <!-- ===== TACTICAL VEST (shifted right +0.7, down +0.2) ===== -->
  <g id="vest" transform="translate(0.7,0.2)" stroke="#3f5b28" stroke-width=".6" stroke-linejoin="round" stroke-linecap="round">
    <!-- core vest -->
    <path d="M6.8 12.0c.7-1.2 2.1-2.1 3.4-2.1s2.7.9 3.4 2.1c.4.6.6 1.3.6 2 0 2.6-1.4 4.8-3.4 5.6-.7.3-2.1.3-2.8 0-2-.8-3.4-3-3.4-5.6 0-.7.2-1.4.6-2Z" fill="#4b6e2f"></path>
    <!-- MOLLE rows -->
    <path d="M7.6 13.0h4.0M7.2 14.0h4.8M7.0 15.0h5.2" stroke="#2f4420"></path>
    <!-- front pouches -->
    <rect x="7.3" y="13.2" width="1.6" height="1.1" rx=".15" fill="#3f5b28"></rect>
    <rect x="9.5" y="13.2" width="1.6" height="1.1" rx=".15" fill="#3f5b28"></rect>
    <!-- shoulder pads -->
    <rect x="7.0" y="11.5" width="1.6" height=".7" rx=".2" fill="#3f5b28"></rect>
    <rect x="10.8" y="11.5" width="1.6" height=".7" rx=".2" fill="#3f5b28"></rect>
    <!-- name tape -->
    <rect x="8.2" y="16.1" width="2.8" height=".6" rx=".2" fill="#6c8c40" stroke="none"></rect>
  </g>

  <!-- ===== DOG TAGS ===== -->
  <g id="dogTags" stroke="#7b8591" stroke-width=".4" fill="#cfd6de" stroke-linecap="round">
    <path d="M9.6 10.8c-.4.5-.4 1.0 0 1.3" fill="none"></path>
    <path d="M10.6 10.8c-.4.5-.4 1.0 0 1.3" fill="none"></path>
    <rect x="9.1" y="11.7" width=".9" height=".6" rx=".15"></rect>
    <rect x="10.1" y="11.9" width=".9" height=".6" rx=".15"></rect>
  </g>

  <!-- ===== SHOULDER PIVOT (invisible guide) ===== -->
  <g opacity="0">
    <circle id="shoulderPivot" cx="11.3" cy="11.2" r="0.01"></circle>
  </g>
</svg>
