<svg xmlns="http://www.w3.org/2000/svg" width="24" height="24" viewBox="0 0 24 24" role="img" aria-labelledby="title" data-silo-top-center="21.0,10.2" data-silo-top-outer-radius="1.9" data-silo-top-inner-radius="1.2">
  <title id="title">Cat base with raised camo helmet (ears covered) and open-top nuke silo</title>

  <!-- ============ CAT (no arms) ============ -->
  <g fill="currentColor" stroke="currentColor" stroke-linejoin="round" stroke-linecap="round" stroke-width=".6">
    <!-- Tail -->
    <path d="M9.6 18.7c-1.4.1-2.4 1.1-2.4 2.2 0 1 .7 1.8 1.6 1.8.4 0 .7-.2.7-.5 0-.2-.1-.4-.3-.5-.7-.3-.8-1.3.4-1.9" fill="currentColor"></path>
    <!-- Body -->
    <ellipse cx="10.2" cy="14.8" rx="4.6" ry="5.4"></ellipse>
    <ellipse cx="10.2" cy="15.6" rx="2" ry="2.6" fill="#fff" stroke="none" opacity=".9"></ellipse>
    <!-- Feet -->
    <ellipse cx="8.2" cy="19.6" rx="1" ry=".6"></ellipse>
    <ellipse cx="12.2" cy="19.6" rx="1" ry=".6"></ellipse>
    <!-- Head -->
    <circle cx="9.6" cy="7.9" r="3.8"></circle>
    <!-- Ears (covered by helmet) -->
    <path d="M7.4 5.3 8.5 3.3 9.5 5.2Z"></path>
    <path d="M10.6 5.2 11.6 3.3 12.6 5.3Z"></path>
    <!-- Eyes -->
    <g stroke="none">
      <ellipse cx="8.7" cy="7.8" rx=".55" ry=".7" fill="#fff"></ellipse>
      <ellipse cx="10.6" cy="7.8" rx=".55" ry=".7" fill="#fff"></ellipse>
      <circle cx="8.8" cy="7.9" r=".25" fill="currentColor"></circle>
      <circle cx="10.7" cy="7.9" r=".25" fill="currentColor"></circle>
      <circle cx="8.7" cy="7.7" r=".1" fill="#fff"></circle>
      <circle cx="10.6" cy="7.7" r=".1" fill="#fff"></circle>
    </g>
    <!-- Muzzle + nose -->
    <ellipse cx="9.6" cy="9.2" rx="1.5" ry="1.1" fill="#fff" stroke="none" opacity=".9"></ellipse>
    <path d="M9.3 8.8h.6l-.3.35Z" fill="currentColor" stroke="none"></path>
    <!-- Whiskers -->
    <path d="M7.2 9.3h1.5M10.6 9.3h1.5M7.3 9.7h1.4M10.7 9.7h1.4" stroke="currentColor" stroke-width=".4" fill="none"></path>
  </g>

  <!-- ============ CAMO HELMET (raised slightly; ears covered, eyes visible) ============ -->
  <g stroke="none">
    <!-- helmet shell (slightly higher) -->
    <path d="M5.2 4.8c2.7-1.8 6.1-1.8 8.8 0 .25.17.25.45 0 .7-.45.8-1.35 1.6-2.25 2.0-2.6-.6-4.2-.6-6.8 0-.9-.4-1.8-1.2-2.25-2.0-.15-.25-.15-.53 0-.7Z" fill="#4b6e2f"></path>
    <!-- rim (still above eyes) -->
    <path d="M5.0 6.4c2.9-.55 6.0-.55 8.9 0-.25.45-.7.8-1.2.95-2.2-.35-4.3-.35-6.5 0-.5-.15-.95-.5-1.2-.95Z" fill="#3f5b28"></path>
    <!-- camo blotches -->
    <circle cx="7.2" cy="5.5" r=".35" fill="#2f4420"></circle>
    <circle cx="9.8" cy="5.1" r=".38" fill="#6c8c40"></circle>
    <circle cx="11.5" cy="6.0" r=".32" fill="#2f4420"></circle>
    <!-- (removed chin strap / green band per request) -->
  </g>

  <!-- ============ NUKE SILO (open top) ============ -->
  <g id="silo" stroke="#43464a" stroke-linejoin="round" stroke-linecap="round" stroke-width=".6">
    <!-- top ring (open) -->
    <g id="siloTop">
      <circle cx="21.0" cy="10.2" r="1.9" fill="#9aa3b1"></circle>
      <circle cx="21.0" cy="10.2" r="1.2" fill="#2b2f36"></circle>
      <!-- bolt hints -->
      <circle cx="21.0" cy="8.6" r=".08" fill="#2b2f36" stroke="none"></circle>
      <circle cx="22.2" cy="9.1" r=".08" fill="#2b2f36" stroke="none"></circle>
      <circle cx="22.6" cy="10.2" r=".08" fill="#2b2f36" stroke="none"></circle>
      <circle cx="22.2" cy="11.3" r=".08" fill="#2b2f36" stroke="none"></circle>
      <circle cx="21.0" cy="11.8" r=".08" fill="#2b2f36" stroke="none"></circle>
      <circle cx="19.8" cy="11.3" r=".08" fill="#2b2f36" stroke="none"></circle>
      <circle cx="19.4" cy="10.2" r=".08" fill="#2b2f36" stroke="none"></circle>
      <circle cx="19.8" cy="9.1" r=".08" fill="#2b2f36" stroke="none"></circle>
    </g>
    <!-- cylindrical body -->
    <g>
      <rect x="19.4" y="11.2" width="3.2" height="8.2" rx=".6" fill="#7b8591"></rect>
      <path d="M20.2 11.4v7.8M21.8 11.4v7.8" stroke="#66707e"></path>
      <!-- ladder -->
      <g stroke="#555" fill="none">
        <path d="M19.6 12.0v6.8"></path>
        <path d="M19.6 12.6h.9M19.6 13.4h.9M19.6 14.2h.9M19.6 15.0h.9M19.6 15.8h.9M19.6 16.6h.9M19.6 17.4h.9"></path>
      </g>
      <!-- hazard band -->
      <rect x="19.4" y="19.0" width="3.2" height=".9" rx=".2" fill="#444" stroke="#444"></rect>
      <path d="M19.5 19.1l.5.7m.5-.7l.5.7m.5-.7l.5.7m.5-.7l.5.7" stroke="#f4c542"></path>
    </g>
  </g>

  <!-- Invisible guides -->
  <g opacity="0">
    <circle id="siloTopOuter" cx="21.0" cy="10.2" r="1.9"></circle>
    <circle id="siloTopInner" cx="21.0" cy="10.2" r="1.2"></circle>
  </g>
</svg>
