<svg xmlns="http://www.w3.org/2000/svg" width="24" height="24" viewBox="0 0 24 24" role="img" aria-labelledby="title" data-emitter-center="20,6.9" data-arc-a="18.8,5.6" data-arc-b="21.2,5.6" data-arc-c="18.6,7.6" data-arc-d="21.4,7.6">
  <title id="title">Terminator Cat + Upgraded Tesla Tower (cat closer)</title>

  <!-- ===== TERMINATOR CAT (moved closer) ===== -->
  <g id="terminatorCat" transform="translate(-0.8,0)" stroke="#43464a" stroke-width=".6" stroke-linejoin="round" stroke-linecap="round">
    <!-- segmented tail -->
    <path d="M8.0 18.6c-1.0.1-1.7.8-1.7 1.6 0 .7.5 1.3 1.1 1.3.3 0 .5-.1.5-.3 0-.2-.1-.3-.3-.4-.5-.2-.5-.9.4-1.3" fill="#8e97a3"></path>
    <!-- torso plating -->
    <ellipse cx="10.8" cy="14.8" rx="3.9" ry="4.6" fill="#8e97a3"></ellipse>
    <path d="M8.2 12.8h5.2m-5.6 1.6h6m-5.2 1.6h4.6" stroke="#66707e"></path>
    <!-- vent panel -->
    <rect x="9.1" y="15.8" width="3.2" height="1.3" rx=".2" fill="#7b8591" stroke="#66707e"></rect>
    <path d="M9.5 16.0h2.4m-2.4.6h2.4" stroke="#5c6571" stroke-width=".4"></path>
    <!-- feet (metal pads) -->
    <ellipse cx="9.2" cy="19.6" rx=".9" ry=".55" fill="#8e97a3"></ellipse>
    <ellipse cx="12.6" cy="19.6" rx=".9" ry=".55" fill="#8e97a3"></ellipse>

    <!-- head shell -->
    <circle cx="10.8" cy="8.8" r="3.2" fill="#9099a6"></circle>
    <!-- ear plates -->
    <path d="M8.9 6.8 9.8 5.1 10.6 6.7Z" fill="#8a93a0"></path>
    <path d="M11.1 6.7 11.9 5.1 12.8 6.9Z" fill="#8a93a0"></path>
    <!-- face plate split -->
    <path d="M10.8 6.2v5.2" stroke="#5d6672"></path>
    <!-- eyes (right = red sensor) -->
    <g stroke="none">
      <ellipse cx="10.0" cy="8.8" rx=".45" ry=".55" fill="#e6eef7"></ellipse>
      <circle cx="11.6" cy="8.9" r=".42" fill="#ff3b30"></circle>
      <circle cx="11.45" cy="8.75" r=".18" fill="#ff8a80"></circle>
    </g>
    <!-- muzzle grille -->
    <rect x="10.1" y="10.0" width="1.4" height=".9" rx=".15" fill="#7b8591" stroke="#66707e"></rect>
    <path d="M10.2 10.3h1.2m-1.2.3h1.2" stroke="#5c6571" stroke-width=".35"></path>
    <!-- jaw hinge + whisker ports -->
    <circle cx="9.4" cy="10.4" r=".1" fill="#43464a" stroke="none"></circle>
    <circle cx="12.2" cy="10.4" r=".1" fill="#43464a" stroke="none"></circle>
    <!-- cable whiskers -->
    <path d="M8.3 10.2h1.1M8.3 10.6h1.0M13.1 10.2h1.1M13.1 10.6h1.0" stroke="#5d6672" stroke-width=".4"></path>

    <!-- chest core (glow-able) -->
    <circle cx="10.8" cy="14.0" r=".7" fill="#15e0ff" stroke="#0b3d4b" stroke-width=".5"></circle>

    <!-- shoulder bolts -->
    <g fill="#2b2f36" stroke="none">
      <circle cx="9.2" cy="12.1" r=".13"></circle>
      <circle cx="12.4" cy="12.1" r=".13"></circle>
    </g>
  </g>

  <!-- ===== TESLA TOWER — BIG & SCARY ===== -->
  <g id="teslaTower" stroke="#43464a" stroke-width=".6" stroke-linejoin="round" stroke-linecap="round">
    <!-- spiked crown above emitter -->
    <g fill="#7b8591">
      <path d="M20 4.2l-.6 1.1h1.2Z"></path>
      <path d="M18.9 4.6l-.6 1.0h1.1Z"></path>
      <path d="M21.1 4.6l-.5 1.0h1.0Z"></path>
    </g>

    <!-- bigger emitter torus -->
    <ellipse cx="20" cy="6.9" rx="2.3" ry="1.2" fill="#9aa3b1"></ellipse>
    <ellipse cx="20" cy="6.9" rx="2.0" ry=".35" fill="#7b8591" opacity=".55" stroke="none"></ellipse>

    <!-- dual secondary coils on a thick mast -->
    <rect x="18.6" y="8.1" width="2.8" height="10.4" rx=".6" fill="#6f7a88"></rect>
    <g stroke="#8b4e1f">
      <path d="M19 9.2h2"></path><path d="M19 10.1h2"></path><path d="M19 11.0h2"></path><path d="M19 11.9h2"></path>
      <path d="M19 12.8h2"></path><path d="M19 13.7h2"></path><path d="M19 14.6h2"></path><path d="M19 15.5h2"></path><path d="M19 16.4h2"></path>
    </g>

    <!-- side braces -->
    <path d="M18.1 9.4l-1.2 1.2v6.6l1.2.9" fill="#7b8591"></path>
    <path d="M21.9 9.4l1.2 1.2v6.6l-1.2.9" fill="#7b8591"></path>

    <!-- angry base with hazards -->
    <ellipse cx="20" cy="19.0" rx="2.0" ry=".7" fill="#9aa3b1"></ellipse>
    <rect x="17.5" y="19.2" width="5.0" height="2.1" rx=".5" fill="#6f7a88"></rect>
    <rect x="17.7" y="19.5" width="4.6" height=".9" rx=".2" fill="#444" stroke="#444"></rect>
    <path d="M17.8 19.6l.6.8m.6-.8l.6.8m.6-.8l.6.8m.6-.8l.6.8" stroke="#f4c542"></path>

    <!-- lightning nubs (arc anchors) -->
    <circle cx="18.8" cy="5.6" r=".12" fill="#2b2f36" stroke="none"></circle>
    <circle cx="21.2" cy="5.6" r=".12" fill="#2b2f36" stroke="none"></circle>
    <circle cx="18.6" cy="7.6" r=".12" fill="#2b2f36" stroke="none"></circle>
    <circle cx="21.4" cy="7.6" r=".12" fill="#2b2f36" stroke="none"></circle>
  </g>

  <!-- ambient shadow -->
  <ellipse cx="12" cy="21.0" rx="9.8" ry="1.1" fill="#000" opacity=".06"></ellipse>

  <!-- guides -->
  <g opacity="0">
    <circle id="emitterCenter" cx="20" cy="6.9" r="0.01"></circle>
    <circle id="arcA" cx="18.8" cy="5.6" r="0.01"></circle>
    <circle id="arcB" cx="21.2" cy="5.6" r="0.01"></circle>
    <circle id="arcC" cx="18.6" cy="7.6" r="0.01"></circle>
    <circle id="arcD" cx="21.4" cy="7.6" r="0.01"></circle>
  </g>
</svg>
