<?xml version="1.0" encoding="UTF-8"?>
<svg width="800" height="600" viewBox="0 0 800 600" xmlns="http://www.w3.org/2000/svg" role="img" aria-labelledby="title desc">
  <title id="title">Doghouse yard — enhanced SVG</title>
  <desc id="desc">A stylized fenced lawn with a doghouse at the lower-right, soft lighting, wood textures, and subtle shadows.</desc>

  <defs>
    <!-- Gradients -->
    <linearGradient id="grassGrad" x1="0" y1="0" x2="0" y2="1">
      <stop offset="0" stop-color="#83d864"/>
      <stop offset="1" stop-color="#5dbb4a"/>
    </linearGradient>
    <radialGradient id="vignette" cx="50%" cy="45%" r="70%">
      <stop offset="70%" stop-color="rgba(0,0,0,0)" />
      <stop offset="100%" stop-color="rgba(0,0,0,0.35)" />
    </radialGradient>
    <linearGradient id="woodBody" x1="0" y1="0" x2="0" y2="1">
      <stop offset="0" stop-color="#c36a21"/>
      <stop offset="1" stop-color="#8a4b17"/>
    </linearGradient>
    <linearGradient id="roofGrad" x1="0" y1="0" x2="1" y2="1">
      <stop offset="0" stop-color="#8a431a"/>
      <stop offset="1" stop-color="#55250a"/>
    </linearGradient>
    <linearGradient id="roofFace" x1="0" y1="0" x2="0" y2="1">
      <stop offset="0" stop-color="#a6521f"/>
      <stop offset="1" stop-color="#6b300f"/>
    </linearGradient>

    <!-- Fence patterns -->
    <pattern id="fencePatternH" width="18" height="60" patternUnits="userSpaceOnUse">
      <rect width="18" height="60" fill="#d6b183"/>
      <rect x="2" width="3" height="60" fill="#a4572a" opacity=".9"/>
      <rect x="9" width="2" height="60" fill="#b96b36" opacity=".9"/>
      <rect x="14" width="2" height="60" fill="#a4572a" opacity=".9"/>
      <!-- highlight -->
      <rect width="18" height="1.2" fill="#fff" opacity=".22"/>
    </pattern>
    <pattern id="fencePatternV" width="60" height="18" patternUnits="userSpaceOnUse" patternTransform="">
      <rect width="60" height="18" fill="#d6b183"/>
      <rect y="2" width="60" height="3" fill="#a4572a" opacity=".9"/>
      <rect y="9" width="60" height="2" fill="#b96b36" opacity=".9"/>
      <rect y="14" width="60" height="2" fill="#a4572a" opacity=".9"/>
      <!-- highlight -->
      <rect height="1.2" width="60" fill="#fff" opacity=".22"/>
    </pattern>

    <!-- Subtle noise texture -->
    <filter id="grain" x="-10%" y="-10%" width="120%" height="120%">
      <feTurbulence type="fractalNoise" baseFrequency="0.9" numOctaves="2" seed="2" stitchTiles="stitch" result="noise"/>
      <feColorMatrix in="noise" type="saturate" values="0"/>
      <feComponentTransfer>
        <feFuncA type="table" tableValues="0 0 .04 0"/>
      </feComponentTransfer>
      <feBlend mode="multiply" in2="SourceGraphic"/>
    </filter>

    <!-- Soft shadow -->
    <filter id="softShadow" x="-30%" y="-30%" width="160%" height="160%">
      <feGaussianBlur in="SourceAlpha" stdDeviation="2.5" result="blur"/>
      <feOffset dx="0" dy="2" result="off"/>
      <feMerge>
        <feMergeNode in="off"/>
        <feMergeNode in="SourceGraphic"/>
      </feMerge>
    </filter>

    <!-- Stronger shadow for objects -->
    <filter id="dropShadow" x="-50%" y="-50%" width="200%" height="200%">
      <feGaussianBlur in="SourceAlpha" stdDeviation="4" result="blur"/>
      <feOffset dx="0" dy="3" result="off"/>
      <feColorMatrix in="off" type="matrix" values="
        0 0 0 0 0
        0 0 0 0 0
        0 0 0 0 0
        0 0 0 .35 0" result="shadow"/>
      <feMerge>
        <feMergeNode in="shadow"/>
        <feMergeNode in="SourceGraphic"/>
      </feMerge>
    </filter>

    <!-- Plank lines pattern for the doghouse body -->
    <pattern id="planks" width="18" height="110" patternUnits="userSpaceOnUse">
      <rect width="18" height="110" fill="url(#woodBody)"/>
      <rect x="17" width="1" height="110" fill="#6e3c14" opacity="0.7"/>
      <rect x="8" width="1" height="110" fill="#6e3c14" opacity="0.4"/>
    </pattern>

    <!-- Paw print for tiny decorative grass emboss -->
    <symbol id="paw" viewBox="0 0 24 24">
      <circle cx="6" cy="6" r="3"/>
      <circle cx="18" cy="6" r="3"/>
      <circle cx="8" cy="16" r="3"/>
      <path d="M9 19c2 2 4 2 6 0" fill="none" stroke="currentColor" stroke-width="2"/>
    </symbol>
  </defs>

  <!-- Fence frame -->
  <g id="fence">
    <rect x="0" y="0" width="800" height="60" fill="url(#fencePatternH)"/>
    <rect x="0" y="540" width="800" height="60" fill="url(#fencePatternH)"/>
    <rect x="0" y="60" width="60" height="480" fill="url(#fencePatternV)"/>
    <rect x="740" y="60" width="60" height="480" fill="url(#fencePatternV)"/>
  </g>

  <!-- Lawn -->
  <g filter="url(#softShadow)">
    <rect x="40" y="40" width="720" height="520" rx="12" fill="url(#grassGrad)"/>
    <!-- soft corner vignette -->
    <rect x="40" y="40" width="720" height="520" rx="12" fill="url(#vignette)" opacity=".35" style="mix-blend-mode:multiply"/>
    <!-- mild grain -->
    <rect x="40" y="40" width="720" height="520" rx="12" fill="#000" opacity=".7" filter="url(#grain)"/>
  </g>

  <!-- Decorative grass details -->
  <g opacity=".18" fill="#ffffff" style="mix-blend-mode:soft-light">
    <use href="#paw" width="14" height="14" x="110" y="430" />
    <use href="#paw" width="10" height="10" x="140" y="410" />
    <use href="#paw" width="12" height="12" x="160" y="390" />
  </g>

  <!-- Doghouse group -->
  <g id="doghouse" transform="translate(560 360)">
    <!-- ground shadow -->
    <ellipse cx="80" cy="110" rx="78" ry="18" fill="#000" opacity=".28" filter="url(#dropShadow)"/>

    <!-- body -->
    <g filter="url(#dropShadow)">
      <rect x="0" y="28" width="160" height="110" rx="8" fill="url(#planks)"/>
      <!-- plank highlights -->
      <rect x="0" y="28" width="160" height="4" fill="#fff" opacity=".12"/>
      <rect x="0" y="134" width="160" height="4" fill="#000" opacity=".15"/>
    </g>

    <!-- roof -->
    <g filter="url(#dropShadow)">
      <!-- front face under roof eave -->
      <path d="M-8 52 L80 -6 L168 52 Z" fill="url(#roofFace)"/>
      <!-- main roof slab -->
      <path d="M-16 48 L80 -14 L176 48 L160 52 L80 4 L0 52 Z" fill="url(#roofGrad)"/>
    </g>

    <!-- doorway -->
    <g>
      <ellipse cx="80" cy="92" rx="26" ry="32" fill="#0b0b0b"/>
      <ellipse cx="88" cy="78" rx="6" ry="6" fill="#fff" opacity=".04"/>
    </g>

    <!-- trim -->
    <rect x="0" y="28" width="160" height="8" fill="#e5a76a" opacity=".5"/>
    <rect x="0" y="130" width="160" height="8" fill="#5d2c0c" opacity=".35"/>
  </g>

  <!-- Gentle lighting from top-left -->
  <radialGradient id="light" cx="0.2" cy="0.05" r="0.6">
    <stop offset="0" stop-color="white" stop-opacity=".35"/>
    <stop offset="1" stop-color="white" stop-opacity="0"/>
  </radialGradient>
  <rect x="0" y="0" width="800" height="600" fill="url(#light)" style="mix-blend-mode:screen; pointer-events:none"/>

</svg>
